<?xml version="1.0" encoding="UTF-8" standalone="no"?>
<!-- Created with Inkscape (http://www.inkscape.org/) -->

<svg
   version="1.1"
   id="svg1"
   width="704"
   height="1526"
   viewBox="0 0 704 1526"
   sodipodi:docname="logo vector white.svg"
   inkscape:version="1.4.3 (0d15f75, 2025-12-25)"
   xmlns:inkscape="http://www.inkscape.org/namespaces/inkscape"
   xmlns:sodipodi="http://sodipodi.sourceforge.net/DTD/sodipodi-0.dtd"
   xmlns="http://www.w3.org/2000/svg"
   xmlns:svg="http://www.w3.org/2000/svg">
  <defs
     id="defs1" />
  <sodipodi:namedview
     id="namedview1"
     pagecolor="#ffffff"
     bordercolor="#000000"
     borderopacity="0.25"
     inkscape:showpageshadow="2"
     inkscape:pageopacity="0.0"
     inkscape:pagecheckerboard="0"
     inkscape:deskcolor="#d1d1d1"
     inkscape:zoom="0.75529755"
     inkscape:cx="294.58589"
     inkscape:cy="351.51709"
     inkscape:window-width="1920"
     inkscape:window-height="1017"
     inkscape:window-x="-8"
     inkscape:window-y="-8"
     inkscape:window-maximized="1"
     inkscape:current-layer="g3" />
  <g
     inkscape:groupmode="layer"
     inkscape:label="Image"
     id="g1">
    <g
       id="g3"
       transform="translate(-4.6115328e-8,-101.1092)">
      <g
         id="g2"
         transform="translate(5.2959259,-84.734813)">
        <path
           id="path3"
           style="fill:#e31e24;fill-opacity:1"
           d="m 587.96094,335.09961 c -35.64376,6.42622 -71.27363,12.93015 -106.90009,19.45152 -20.17725,3.7239 -40.3902,7.41506 -60.47296,11.47621 -7.91469,1.65427 -15.82755,3.35656 -23.61328,5.55078 56.24714,-6.87445 112.46517,-13.90949 168.70757,-20.82662 12.46958,-1.53965 24.94015,-3.07263 37.40962,-4.63236 -7.61472,0.0929 -15.23214,0.24053 -22.84539,0.28304 -2.82888,-0.33847 -5.65778,-0.67687 -8.48664,-1.01546 2.80292,-1.5054 5.48502,-3.24142 8.35542,-4.61577 6.51629,-2.63727 13.04535,-5.24112 19.60356,-7.7729 -3.91927,0.70052 -7.83854,1.40104 -11.75781,2.10156 z m 21.08594,29.83398 c -8.08345,0.32375 -16.14693,1.18574 -24.19128,1.94383 -9.62287,0.99674 -19.22509,2.03879 -28.79421,3.42762 -0.96062,0.14526 -1.91992,0.29946 -2.87389,0.48402 -1.34144,8.97636 -2.51277,18.04294 -3.73205,27.06243 -3.93508,29.70187 -7.75063,59.43286 -11.47019,89.15417 -1.03412,8.46145 -2.09527,16.92046 -3.01846,25.39473 13.97729,-1.79824 27.97802,-3.43365 41.91428,-5.53359 5.88539,-0.93508 11.75078,-1.97625 17.42361,-3.76328 8.80298,-2.88986 16.60789,-8.63052 22.06273,-16.11163 2.32692,-3.11505 4.2794,-6.42799 5.99528,-9.87182 4.81452,-9.84217 7.79728,-20.46651 10.07785,-31.14937 1.49337,-7.24329 2.86586,-14.52906 3.5282,-21.90234 0.46079,-5.01375 0.57369,-10.18345 0.64942,-15.23759 0.0585,-6.41393 0.0798,-12.82926 -0.0166,-19.24288 -0.0951,-3.17508 -0.16168,-6.59869 -1.62371,-9.54976 -1.50883,-3.32012 -3.25123,-6.62467 -5.89569,-9.24612 -3.10246,-3.23925 -7.52063,-4.79132 -11.87658,-5.38766 -2.72649,-0.37031 -5.43229,-0.50443 -8.1587,-0.47076 z m -73.2793,8.13282 c -22.31913,2.31126 -44.56959,5.22536 -66.84643,7.90345 -3.06291,0.37398 -6.12582,0.74796 -9.18873,1.12194 -2.46486,17.23286 -4.59587,34.54365 -6.80738,51.82415 -3.55026,28.11211 -7.08271,56.22061 -10.33435,84.36902 -0.18181,1.71166 -0.41731,3.49288 -0.53991,5.16425 7.5111,-0.45374 14.96226,-1.45021 22.44614,-2.33328 17.50613,-2.1272 35.00414,-4.38354 52.50894,-6.57492 1.15185,-9.37402 2.41051,-18.72085 3.36914,-28.11719 -11.23318,0.94114 -22.41973,2.54046 -33.64516,3.75717 -2.62439,0.26335 -5.26029,0.68396 -7.89504,0.57694 -1.03962,-0.0776 -1.16274,-1.23355 -1.32699,-2.03724 -0.32114,-1.75315 0.15673,-3.5191 0.26106,-5.27246 0.6953,-6.41131 1.51976,-12.81039 2.54558,-19.17676 0.22051,-0.95288 0.52247,-2.02495 1.1747,-2.72219 5.26646,-0.9446 10.59657,-1.46596 15.89826,-2.17179 6.71465,-0.836 13.46665,-1.63059 20.11845,-2.70562 1.23651,-8.24616 2.09098,-16.5688 2.89581,-24.84188 0.0634,-0.73239 0.12675,-1.46479 0.19013,-2.19719 -10.5959,0.91807 -21.10236,2.75864 -31.7289,3.31925 -1.2903,0.0181 -2.93069,-0.43328 -3.27696,-1.84854 -0.56315,-1.81688 -0.14439,-3.74288 -0.0838,-5.60038 0.43838,-5.53822 0.94701,-11.08355 1.92179,-16.55541 0.23071,-0.92745 0.57685,-2.02086 1.42137,-2.52654 2.52339,-0.81809 5.20087,-0.90646 7.80375,-1.32928 11.90314,-1.56231 23.84041,-2.81837 35.72789,-4.44347 1.38586,-6.96811 2.20746,-14.03299 3.05366,-21.08243 0.25268,-2.17658 0.46816,-4.36462 0.61822,-6.52499 -0.0937,0.008 -0.1875,0.0169 -0.28125,0.0254 z m -292.88477,15.78711 c -15.77556,2.57643 -31.54966,5.16179 -47.32617,7.73242 37.2069,-4.58365 74.41047,-9.19574 111.63281,-13.65235 -6.27548,-0.51797 -12.55465,-1.08852 -18.82914,-1.55799 -15.15917,2.49264 -30.31833,4.98528 -45.4775,7.47792 z m 164.42969,-0.16993 c -8.28908,0.80647 -16.68595,1.75121 -25.00808,2.79514 -1.82093,0.22915 -3.62077,0.45108 -5.43919,0.73221 -1.85645,13.95219 -3.47081,27.92393 -5.16442,41.89905 -1.37706,11.62974 -2.85793,23.26995 -4.02112,34.90954 -0.34604,0.91073 0.32717,0.8258 1.02521,0.71661 7.59384,-0.58117 15.22429,-1.47638 22.80877,-2.41973 2.0529,-0.28403 4.19008,-0.56643 6.26563,-0.91797 2.40807,-16.20468 4.37339,-32.47085 6.39365,-48.72156 1.18447,-9.66116 2.34102,-19.32638 3.33682,-29.00891 l -0.0997,0.008 z m 183.3418,4.95508 c 2.59886,0.0656 5.32847,-0.038 7.76147,1.00919 2.99119,1.543 5.09188,4.57261 5.65133,7.87504 0.80423,3.92669 0.74457,7.96781 0.65694,11.95567 -0.3607,10.92327 -1.93817,21.77819 -4.16967,32.46669 -1.38261,6.35641 -3.01846,12.70861 -5.67395,18.66625 -2.35408,5.00905 -6.061,9.63676 -11.14093,12.05064 -2.96663,1.32672 -6.28569,1.87764 -9.52074,1.6191 -1.70545,-0.18615 -3.34521,-1.45751 -3.50939,-3.24336 -0.28482,-1.95199 0.32118,-3.83708 0.45704,-5.76496 2.84858,-21.91295 5.37712,-43.86954 8.53644,-65.74067 0.42337,-2.67862 0.77835,-5.38135 1.41435,-8.01664 0.45936,-1.33507 1.79256,-2.04221 3.10638,-2.28383 2.10098,-0.52108 4.28067,-0.52174 6.43073,-0.59312 z m -273.17578,6.23438 c -10.16868,0.97219 -20.44397,2.05362 -30.59766,3.45898 -0.54992,0.11277 -0.27282,1.12022 -0.48394,1.59951 -1.50086,10.3606 -2.66285,20.74393 -3.93646,31.12971 -4.35085,36.50322 -8.58102,73.02068 -12.8921,109.52859 21.04236,-2.55529 42.10524,-4.95239 63.12644,-7.65425 1.01334,-0.13394 2.02603,-0.27139 3.03762,-0.41801 2.58379,-9.29839 4.82804,-18.70654 7.03375,-28.11607 0.0851,-0.51541 0.53584,-1.37022 -0.35759,-1.02412 -11.13323,1.04199 -22.20336,2.70794 -33.34842,3.61191 -0.93069,0.0269 -1.85671,-0.10901 -2.76133,-0.31938 -0.68425,-1.29526 -1.05338,-2.77182 -0.77846,-4.2327 0.46735,-5.52183 1.41609,-10.98845 2.00149,-16.4982 3.01516,-24.91054 5.80282,-49.84825 8.50308,-74.79471 0.58554,-5.43372 1.15534,-10.85154 1.65865,-16.28689 -0.0684,0.005 -0.13671,0.0104 -0.20507,0.0156 z m -47.86524,6.14257 c -9.69574,0.84248 -19.41409,1.87348 -29.03906,3.08204 -0.57056,0.14433 -1.36663,0.0652 -1.79434,0.35109 -3.49562,26.1601 -6.55318,52.37722 -10.10055,78.53039 -1.08959,7.75577 -2.11617,15.53851 -3.87952,23.17658 -0.95716,4.11839 -2.49039,8.35397 -5.74864,11.22296 -3.53267,3.25632 -8.7857,4.97509 -13.46792,3.4499 -2.33731,-0.7401 -4.60084,-2.45941 -5.09283,-4.98503 -0.79828,-3.29373 -0.43046,-6.71776 -0.2552,-10.06207 0.79658,-10.79131 2.18168,-21.52807 3.45168,-32.27151 2.58473,-21.46619 5.36161,-42.95391 7.66466,-64.42599 0.37636,-0.92398 -0.56265,-0.56824 -1.13684,-0.56742 -8.06225,0.62504 -16.09072,1.63505 -24.09735,2.75684 -1.828,0.26969 -3.66669,0.57217 -5.47284,0.92191 -1.02265,5.45461 -1.80758,10.96502 -2.60038,16.46261 -2.27887,16.42439 -4.19397,32.89661 -6.34342,49.33815 -1.15992,9.24598 -2.43111,18.47864 -3.51315,27.73395 -0.7593,7.03594 -1.33891,14.10805 -1.08347,21.13019 0.21291,4.30976 0.74343,8.71197 2.51308,12.68862 1.43326,3.14687 3.93104,5.76956 7.00976,7.3457 5.95422,3.18651 12.8975,3.77168 19.50389,3.75622 5.97061,-0.0214 12.09142,-0.69185 17.98979,-1.96349 8.91751,-1.9589 17.57649,-5.5415 24.55928,-11.52067 6.7941,-5.74347 11.6151,-13.53323 14.65147,-21.83666 1.96315,-5.11684 3.74329,-10.44357 4.4879,-15.9266 1.81854,-11.76513 3.2932,-23.59781 4.82976,-35.41438 2.38456,-18.7396 4.66002,-37.49575 6.68104,-56.28387 0.21402,-2.21298 0.45229,-4.47609 0.6289,-6.71289 -0.11523,0.008 -0.23046,0.0156 -0.3457,0.0234 z M 130.85156,424 c -8.73386,0.3005 -17.42685,1.18007 -26.11033,2.06785 -8.039514,0.88574 -16.113023,1.77233 -24.044867,3.15252 -0.425613,0.22329 -1.375246,-0.031 -1.404854,0.58023 -2.501088,16.69998 -4.732392,33.45036 -7.04102,50.18887 -3.933912,28.93982 -7.862754,57.88083 -11.577131,86.84971 -0.201936,1.59827 -0.39157,3.17164 -0.579608,4.7702 7.334112,-0.38813 14.599557,-1.48547 21.87815,-2.34107 3.059334,-0.37981 6.117703,-0.76732 9.176538,-1.15112 1.266715,-9.89946 2.346993,-19.83013 3.585193,-29.74298 0.412431,-2.85289 0.817098,-5.95057 2.751634,-8.22625 1.776552,-1.94705 4.536105,-2.37964 7.034705,-2.54845 4.55781,-0.41742 9.135,-0.96776 13.53839,-2.19707 9.83106,-2.62006 18.95178,-7.99964 25.78539,-15.56455 2.64297,-2.89981 4.89132,-5.96416 6.93033,-9.3431 4.96749,-8.24057 8.08916,-17.69664 9.80365,-27.16763 1.10435,-5.93863 1.74268,-11.91816 1.72978,-17.90606 -0.0263,-5.94974 -0.58075,-12.13603 -2.62978,-17.82344 -1.02609,-2.74569 -2.44789,-5.45423 -4.53635,-7.45432 -2.40447,-2.37907 -5.35341,-4.28833 -8.68116,-5.04782 -4.16829,-1.01422 -8.50814,-1.02583 -12.74537,-1.10372 -0.9545,-0.0103 -1.90882,-4.8e-4 -2.86329,0.008 z m -12.25781,28.09766 c 2.41652,0.012 5.12742,0.11854 6.99051,1.87957 2.81829,2.38259 3.7463,6.20814 3.99762,9.73979 0.34976,5.83456 -0.28261,11.72642 -1.77394,17.3741 -1.59469,5.81244 -4.5873,11.50857 -9.54689,15.12148 -3.49206,2.52898 -7.78903,3.6808 -12.02863,4.0999 -1.70982,0.0817 -3.7953,-0.3076 -4.6196,-2.00122 -0.80251,-1.42553 -0.1612,-3.05826 -0.0747,-4.5681 1.52412,-12.61507 3.29357,-25.21459 4.75874,-37.82326 0.50585,-1.86269 2.50298,-2.68511 4.23373,-2.99605 2.64293,-0.59765 5.36001,-0.78052 8.06314,-0.82621 z m 268.16211,28.39843 c -6.69512,0.58256 -13.43567,1.52607 -20.07017,2.57094 -1.52413,0.25565 -3.04503,0.53133 -4.55874,0.84313 2.45288,13.29267 5.1471,26.55934 7.87539,39.80763 0.61776,3.022 1.28805,6.09022 2.23789,8.9951 10.29358,-0.96627 20.58763,-2.33955 30.86691,-3.63708 7.36962,-0.93938 14.73784,-1.9319 22.08231,-3.02893 1.3484,-8.02777 2.34299,-16.2029 3.29896,-24.32243 0.17133,-1.50013 0.33466,-3.00147 0.46667,-4.5057 -13.47877,1.38503 -26.87921,3.37781 -40.35781,4.78043 -0.88587,0.0159 -1.77186,0.009 -2.65782,0.007 -0.32146,-1.67388 -0.52308,-3.3909 -0.218,-5.08347 0.5306,-5.50874 1.34586,-10.98661 1.80199,-16.48294 -0.25586,0.0189 -0.51172,0.0378 -0.76758,0.0566 z m -32.14258,36.30469 c -3.11424,10.95554 -6.00947,21.94891 -8.75195,33.00391 -0.36931,1.58761 -0.80013,3.25201 -1.01989,4.91161 0.73483,5.46712 2.40102,10.75603 3.51221,16.14058 6.93131,30.35785 13.43297,60.82255 20.38899,91.16722 1.95627,8.39371 3.86144,16.8021 6.04313,25.14059 0.51536,2.24331 1.87238,4.18904 3.36617,5.89825 1.19229,1.34438 2.77406,2.44094 4.61736,2.55564 2.34232,0.17926 4.6539,0.17874 6.98844,0.0358 0.86841,0.13427 0.96354,-0.36084 0.72745,-1.08795 -1.32497,-8.9299 -3.04321,-17.79569 -4.65318,-26.6774 -6.06633,-32.79515 -12.52606,-65.52957 -19.09568,-98.23476 -3.72513,-18.43489 -7.5088,-36.88022 -11.41992,-55.28516 -0.23438,0.81055 -0.46875,1.62109 -0.70313,2.43164 z m 256.62891,4.70117 c -17.83483,1.71769 -35.65192,3.83995 -53.4568,5.94783 -11.99473,1.45408 -23.9838,2.85435 -35.94164,4.6303 -1.27846,7.6089 -2.13778,15.28786 -2.99609,22.97265 -0.15217,1.55199 -0.31907,3.17227 -0.43946,4.75391 8.26666,-0.41504 16.51197,-1.86221 24.83033,-2.0498 1.00235,0.0629 1.88974,0.59187 2.72045,1.1123 0.49638,2.53093 -0.15971,5.08038 -0.33845,7.60881 -4.24468,36.81362 -9.41695,73.5096 -13.62052,110.3247 -0.0554,0.55827 -0.10858,1.07174 -0.12892,1.65438 10.18694,-1.56673 20.45629,-2.30765 30.61518,-4.01232 0.77998,0.0519 0.47314,-0.96216 0.6864,-1.4661 1.30359,-8.15725 2.24451,-16.4131 3.30519,-24.62801 3.09604,-24.73085 5.97788,-49.50922 9.03601,-74.25239 0.80585,-6.09881 1.51796,-12.21808 2.68271,-18.25953 0.28642,-1.27826 1.35271,-2.29816 2.65617,-2.48437 3.3434,-0.87779 6.80125,-1.20067 10.21493,-1.69483 6.00021,-0.75053 12.03199,-1.29036 17.98701,-2.36456 1.24919,-6.56984 1.94726,-13.22903 2.7018,-19.86956 0.28845,-2.6719 0.5298,-5.37678 0.68492,-8.02497 -0.39974,0.0339 -0.79948,0.0677 -1.19922,0.10156 z m -136.42578,17.4375 c -14.2573,0.32813 -28.53364,1.95908 -42.70508,3.80274 -3.24575,0.44513 -6.56311,0.80917 -9.71875,1.39648 -0.39512,0.17256 -1.40838,0.005 -1.25279,0.76551 -6.11582,48.04887 -12.34993,96.08275 -18.3937,144.14074 -0.21678,1.80442 -0.44346,3.62916 -0.66406,5.44141 10.41467,-1.41188 20.85934,-2.59115 31.29492,-3.8418 1.14163,-7.87602 1.99582,-15.76681 2.97413,-23.67194 1.11454,-9.14326 2.11754,-18.30755 3.68129,-27.38728 0.1703,-1.0543 0.7541,-1.99733 1.6063,-2.63023 0.40804,-0.68092 1.40743,-1.17856 2.04102,-0.49024 0.93284,0.81118 1.97964,1.63809 2.30246,2.90174 3.18347,7.95304 5.92156,16.07395 8.76306,24.15276 2.71079,7.70871 5.3976,15.43863 8.59268,22.96308 7.3054,-0.47137 14.56529,-1.39213 21.8285,-2.26465 3.85004,-0.47579 7.69677,-0.98451 11.52502,-1.61425 -3.99931,-11.99194 -8.71328,-23.70351 -13.23765,-35.50443 -2.53408,-6.55381 -5.07486,-13.10503 -7.61196,-19.65768 3.91578,-2.75807 8.07056,-5.24429 11.46762,-8.6619 6.27532,-6.13436 10.94308,-13.79968 14.0812,-21.96506 1.2091,-3.17778 1.992,-6.31579 2.54916,-9.66755 1.09708,-6.02249 1.94957,-12.17935 2.0192,-18.24651 0.0233,-3.28367 -0.18035,-6.76791 -0.73437,-9.99414 -0.24353,-1.41207 -0.60438,-2.94771 -0.99805,-4.28516 -1.425,-4.90145 -4.19146,-9.61411 -8.54172,-12.44699 -2.45682,-1.69785 -5.37162,-2.64949 -8.34119,-2.87766 -4.19731,-0.43965 -8.32371,-0.40347 -12.52724,-0.35699 z m -197.34766,23.70313 c -5.73984,0.2811 -11.43678,1.08404 -17.14342,1.72542 -11.96251,1.43457 -23.92119,2.96074 -35.81576,4.91639 -0.47797,0.17627 -1.35979,-0.0343 -1.26439,0.71387 -1.80518,10.25121 -2.85945,20.60899 -4.18605,30.92308 -4.70048,38.06101 -9.46308,76.11799 -14.32118,114.16157 -0.14357,1.14342 -0.31097,2.28356 -0.47037,3.4249 10.33638,-1.45772 20.71467,-2.52271 31.05273,-3.90039 1.93861,-14.3207 3.34553,-28.71834 5.35692,-43.03635 0.26724,-1.38428 1.45438,-2.36843 2.77425,-2.71173 4.60044,-1.58436 9.51832,-1.75067 14.25115,-2.75759 7.4759,-1.45083 14.8214,-4.07093 21.39388,-8.01932 7.1516,-4.28637 12.61528,-10.90191 16.72535,-18.06445 5.7779,-10.24771 9.04132,-21.71277 10.45206,-33.34177 0.72736,-6.20007 0.96647,-12.35279 0.67353,-18.58496 -0.33825,-5.90671 -1.6726,-12.02975 -5.38823,-16.78108 -3.58264,-4.47002 -9.13004,-6.85378 -14.63403,-7.92844 -3.11164,-0.6071 -6.28986,-0.81304 -9.45644,-0.73915 z m 184.08789,3.27734 c 2.55532,-0.0869 5.34528,0.42428 7.17383,2.36133 2.83559,2.82456 3.705,6.97031 3.9299,10.82843 0.33262,6.67038 -1.06728,13.40723 -3.87521,19.45673 -1.98192,4.19189 -4.99837,8.16456 -9.33042,10.10072 -3.24775,1.54508 -6.81839,2.51387 -10.42416,2.57232 -1.8212,0.0245 -3.96448,-0.73649 -4.57213,-2.62201 -0.47602,-1.57862 0.0561,-3.21963 0.12812,-4.8184 1.32821,-11.14797 2.81265,-22.3047 4.59829,-33.37423 0.20805,-1.08075 0.54223,-2.29994 1.62975,-2.7999 1.92406,-1.1123 4.22436,-1.16402 6.37094,-1.47452 1.4537,-0.1346 2.91101,-0.217 4.37109,-0.23047 z m -283.75195,8.1211 c -9.10533,1.34277 -18.27071,2.24884 -27.40109,3.41289 -1.96437,0.24306 -3.92581,0.50951 -5.88602,0.78437 -5.10003,13.39116 -10.17635,26.79665 -15.32383,40.17205 -14.651,38.22105 -29.434271,76.3917 -44.0375,114.63069 10.829043,-1.4147 21.68443,-2.63129 32.49023,-4.22071 1.02415,-2.90146 2.15703,-5.77633 3.17526,-8.68583 1.63207,-4.52959 3.23643,-9.07011 4.8599,-13.60323 10.5175,-1.55639 21.05105,-3.01422 31.63009,-4.08893 0.4588,0.0902 1.51423,-0.48477 1.49882,0.13502 0.0199,6.90545 -0.13751,13.7462 0.77343,20.57696 0.14791,0.40558 -0.0812,1.0603 0.59225,0.75188 10.38205,-1.25237 20.76799,-2.37547 31.11444,-3.84212 0.0954,-0.70097 -0.0815,-1.62004 -0.0906,-2.40471 -0.98415,-15.4262 -2.3808,-30.84147 -3.65834,-46.25732 -2.64062,-31.10405 -5.31785,-62.20548 -8.19786,-93.28833 -0.13942,-1.43326 -0.27472,-2.82937 -0.42787,-4.25823 -0.37045,0.0619 -0.74089,0.1237 -1.11133,0.18555 z m 153.88672,11.32812 c -11.4677,33.95065 -22.85699,67.92768 -34.20091,101.91657 -2.20425,6.6831 -4.46272,13.35306 -6.63308,20.04437 -0.15551,0.55289 1.02011,0.007 1.41682,0.10712 8.52163,-0.86473 17.05413,-2.0172 25.56787,-3.21687 1.74653,-0.24821 3.57056,-0.54522 5.30242,-0.83361 1.3925,-4.76297 2.6791,-9.56235 3.88846,-14.37769 1.2395,-4.81284 2.45431,-9.63248 3.96277,-14.35472 0.38685,-1.30366 1.09461,-2.54652 2.29135,-3.26173 2.50239,-1.51227 5.53047,-1.57285 8.34961,-1.95117 4.34959,-0.45138 8.71837,-0.76264 13.03711,-1.46875 0.26448,-0.15805 1.26164,-9e-5 1.22542,-0.44201 -1.64186,-8.09186 -3.60849,-16.12214 -5.45589,-24.18299 -2.04556,-0.0461 -4.25706,0.28599 -6.14799,-0.67102 -1.55509,-0.90188 -2.09208,-2.94039 -1.55927,-4.59442 0.87657,-4.19817 2.5963,-8.16031 3.61907,-12.31633 0.33988,-1.51956 0.16791,-3.09602 -0.32373,-4.55909 -2.79409,-11.51021 -5.09435,-23.13317 -7.79671,-34.66511 -0.92205,-4.01806 -1.85379,-8.03398 -2.82848,-12.03974 -1.23828,3.6224 -2.47656,7.24479 -3.71484,10.86719 z m -69.91797,6.40625 c 3.30051,-0.0271 6.94418,0.50556 9.34765,2.98828 2.5315,2.66744 3.17697,6.4964 3.37157,10.03148 0.19565,6.30073 -1.00189,12.58643 -2.94672,18.55987 -1.42591,4.11454 -3.40495,8.2145 -6.66756,11.18962 -2.92089,2.50673 -6.62316,3.85795 -10.27838,4.88607 -1.72168,0.37919 -3.52679,0.97427 -5.29312,0.57075 -1.86489,-0.53449 -2.9124,-2.52139 -2.86763,-4.37493 -0.14932,-3.44122 0.4521,-6.85594 0.8046,-10.2688 1.06665,-8.59377 1.98535,-17.21386 3.50615,-25.7425 0.40431,-1.81397 0.75614,-3.70375 1.67768,-5.33635 1.06589,-1.62841 3.125,-1.95983 4.90671,-2.20394 1.47046,-0.21069 2.95539,-0.27025 4.43905,-0.29955 z m -105.54492,32.05273 c 0.34455,2.15781 0.83908,4.3012 1.09081,6.4679 0.26208,13.81352 0.83084,27.62207 0.63056,41.44008 -0.12976,1.39123 0.0832,3.07303 -1.04879,4.11099 -1.43553,1.2204 -3.442,1.25718 -5.20865,1.59785 -5.28079,0.73946 -10.61488,0.97416 -15.91916,1.494 -0.98174,0.34751 -0.58789,-0.38365 -0.36458,-0.98107 5.51726,-16.32951 10.99135,-32.67554 16.54637,-48.99107 1.28712,-2.48828 2.5744,-4.97647 3.86133,-7.46485 0.13737,0.77539 0.27474,1.55078 0.41211,2.32617 z m 309.13281,80.83594 c -23.7077,3.00376 -47.41631,6.00451 -71.09961,9.19532 3.91775,0.21579 7.83508,0.5315 11.67896,0.39344 6.11991,-0.24559 12.13396,-1.12972 18.20078,-1.99419 16.71856,-2.52441 33.40344,-5.33197 50.10326,-8.0451 5.71182,-0.9338 11.42287,-1.87237 17.13419,-2.80923 -8.67253,1.08659 -17.34506,2.17317 -26.01758,3.25976 z m -223.58789,27.99219 c -46.92176,5.88583 -93.85438,11.65172 -140.77987,17.47535 -2.314263,0.29012 -4.628526,0.58023 -6.942789,0.87035 7.528669,-0.0455 15.062449,-0.15451 22.587609,0.11229 1.57797,0.14343 3.50387,0.16787 4.51356,1.60185 1.19749,1.54365 0.248,3.95638 -1.53178,4.55637 -4.27958,1.75388 -8.66948,3.22113 -13.00649,4.82502 -2.47484,0.89109 -4.94835,1.78631 -7.424227,2.674 43.879047,-8.04831 87.760897,-16.08668 131.575107,-24.46582 13.75822,-2.64535 27.54076,-5.16542 41.29028,-7.85431 11.24187,-2.23277 22.41016,-4.77129 33.44711,-7.7951 -21.24284,2.66667 -42.48567,5.33333 -63.72851,8 z" />
        <path
           id="path2"
           style="fill:#ffffff;fill-opacity:1"
           d="m 624.51562,325.97461 c -3.62641,0.40579 -7.21432,1.12334 -10.81725,1.70409 -25.02956,4.33338 -50.02398,8.87622 -75.02093,13.39785 -33.89355,6.15388 -67.78202,12.3369 -101.65734,18.59018 -10.08694,1.93688 -20.19012,3.82326 -30.19564,6.15219 -5.82252,1.58282 -11.56411,3.44986 -17.32049,5.25571 -5.39965,1.74893 -10.82985,3.41987 -16.15045,5.39998 -0.60566,0.17269 -1.02287,0.72618 -0.82422,1.35742 0.74003,0.83795 1.96478,0.39002 2.9208,0.30497 8.6636,-1.21703 17.35463,-2.23534 26.03177,-3.35297 51.7513,-6.46618 103.51817,-12.78812 155.28014,-19.18362 29.45181,-3.64513 58.91137,-7.21619 88.34308,-11.03188 1.01705,-0.17527 2.09662,-0.19614 3.07279,-0.49405 0.33242,-0.33404 1.11641,-0.74936 1.15698,-1.032 -0.9171,-0.36653 -1.86401,-0.61465 -2.85983,-0.54404 -10.83089,-0.0743 -21.66259,0.13864 -32.49252,0.28804 -9.05098,0.15323 -18.15188,0.34731 -27.16712,0.64128 -1.05675,0.0218 -2.11393,0.0344 -3.17086,0.0195 12.04558,-4.97573 24.38995,-9.18196 36.5293,-13.91211 1.67905,-0.7181 3.4515,-1.2668 5.02344,-2.20704 0.16039,-0.51359 0.75753,-1.23206 -0.15384,-1.23019 -0.17676,-0.033 -0.34392,-0.14806 -0.52781,-0.12332 z m -14.25585,35.81836 c -6.25689,0.23065 -12.48856,0.90693 -18.7212,1.48303 -11.90212,1.19878 -23.8077,2.43215 -35.65788,4.07483 -1.48098,0.26722 -3.03024,0.33911 -4.44514,0.86792 -0.65501,0.26122 -0.43225,1.12953 -0.61648,1.69241 -2.13213,15.5882 -4.04397,31.2071 -6.02632,46.81542 -3.97422,31.61449 -7.84313,63.24248 -11.89762,94.84672 -0.10205,1.33383 -0.61401,2.74889 -0.10021,4.04975 0.62079,1.06939 1.99959,0.66859 2.97641,0.47199 8.34412,-1.25238 16.70834,-2.19479 25.07711,-3.23284 9.05742,-1.13652 18.14727,-2.15025 27.0999,-3.96889 5.11318,-1.02483 10.10864,-2.66109 14.76637,-5.0188 5.48536,-2.64454 10.56551,-6.2252 14.56409,-10.847 6.5692,-7.53045 11.27093,-16.54845 14.3926,-26.00798 3.73947,-11.27632 5.87265,-22.99899 7.79641,-34.69769 1.22893,-7.48998 1.83337,-15.07254 1.93429,-22.65992 0.078,-7.42585 0.23978,-14.86918 -0.34417,-22.27916 -0.38304,-4.65963 -1.34756,-9.43701 -4.02128,-13.36484 -2.7019,-4.02908 -6.2293,-7.68965 -10.74579,-9.64074 -5.01302,-2.22971 -10.61484,-2.61185 -16.03109,-2.58421 z m -70.48243,7.72851 c -8.79829,0.83546 -17.56586,1.9738 -26.34485,2.99119 -18.5667,2.24692 -37.12613,4.55334 -55.68835,6.83694 -1.65826,11.03662 -2.92561,22.12742 -4.32271,33.19819 -4.47051,36.21448 -8.74308,72.45486 -13.29764,108.65573 -0.1298,1.65419 -0.68559,3.30832 -0.43043,4.97225 0.24047,1.18225 1.58815,1.44401 2.6117,1.35845 4.48212,-0.25513 8.934,-0.89539 13.39333,-1.40175 18.04195,-2.23624 36.06704,-4.65746 54.05125,-7.30742 3.483,-0.56045 6.99461,-0.98921 10.4378,-1.76246 1.00385,-0.27366 0.95593,-1.5408 1.2149,-2.36143 1.28373,-7.05062 2.07144,-14.18189 2.82171,-21.30582 0.25389,-2.99773 0.65461,-6.00234 0.56913,-9.01422 0.0376,-0.68445 -0.52934,-1.22676 -1.21175,-1.13759 -3.90744,0.0851 -7.79555,0.58398 -11.68312,0.96325 -9.92352,1.04245 -19.81518,2.46351 -29.74206,3.2561 0.30843,-5.61265 1.06774,-11.19069 1.79759,-16.76107 0.26804,-1.76816 0.48749,-3.54976 0.90749,-5.28971 3.07647,-0.87306 6.27028,-1.25354 9.42205,-1.76336 8.3973,-1.28732 16.903,-1.91486 25.21662,-3.71125 0.8848,-0.29858 2.12578,-0.34157 2.56445,-1.29102 1.18632,-10.89225 2.46499,-21.85302 3.71809,-32.7694 0.003,-0.52548 -1.05882,0.0524 -1.49957,-0.0132 -9.2181,1.42714 -18.45516,2.4836 -27.73414,3.45644 -2.31794,0.20435 -4.70015,0.4865 -7.05274,0.58594 0.10357,-3.96562 0.76407,-7.83804 1.34987,-11.77118 0.50824,-2.88583 0.91252,-5.81293 1.80834,-8.60968 5.04913,-0.94893 10.17817,-1.50209 15.25971,-2.14905 7.78523,-0.97682 15.61017,-1.66808 23.36006,-2.90256 1.74572,-0.38359 3.72316,-0.53948 5.10288,-1.79605 1.05487,-1.1723 0.98606,-2.87222 1.32405,-4.3279 1.21564,-7.81168 2.16587,-15.666 2.96232,-23.53146 0.0872,-1.57184 0.40503,-3.16352 0.19996,-4.73243 -0.18324,-0.63733 -0.49964,-0.60479 -1.08594,-0.56446 z m -249.14257,8.75 c -65.36792,10.54458 -130.73636,21.08668 -196.079276,31.78499 -3.020765,0.54347 -6.085176,0.90831 -9.057564,1.67918 -0.470054,0.14587 -0.858873,0.48208 -0.647203,1.00653 -0.146161,0.68855 0.722574,0.61155 1.188335,0.66602 5.447857,-0.33676 10.863642,-1.06336 16.287778,-1.66054 24.38789,-2.85755 48.74754,-5.95093 73.12042,-8.9333 41.87871,-5.16162 83.75496,-10.34388 125.6443,-15.4185 8.00503,-0.96771 16.02002,-1.92674 24.03048,-2.77216 1.37309,-0.22463 2.81725,-0.28669 4.10062,-0.86198 0.68249,-0.39587 0.45208,-1.49642 -0.32618,-1.60156 -4.11623,-0.74915 -8.29963,-1.06373 -12.45462,-1.52952 -8.5645,-0.8412 -17.13866,-1.58089 -25.70748,-2.37673 l -0.0985,0.0174 z m 30.62109,17.69922 c -2.30706,0.33845 -4.61076,0.72604 -6.93004,0.99253 -9.77271,1.27336 -19.62961,2.27431 -29.42348,3.53677 -0.68531,4.0078 -1.07755,8.06129 -1.61334,12.09148 -4.5947,37.50843 -9.01994,75.04008 -13.38103,112.57733 -0.82955,7.39047 -1.74517,14.77381 -2.44703,22.17689 -0.10838,1.06125 0.6808,2.13369 1.79702,2.11241 1.66892,-0.009 3.30133,-0.47581 4.96298,-0.61761 15.38745,-2.00692 30.83594,-3.65843 46.23456,-5.66248 5.69943,-0.79057 11.42301,-1.47691 17.05708,-2.66132 0.88038,-0.19964 1.99292,-0.40523 2.24271,-1.43314 1.38576,-3.70113 2.30246,-7.5595 3.33339,-11.36987 1.63649,-6.44522 3.27439,-12.89849 4.4712,-19.44303 0.0905,-0.90061 0.48471,-1.92295 -0.0345,-2.75504 -0.97365,-0.51379 -2.13686,-0.17372 -3.18736,-0.18873 -11.22731,0.75828 -22.34532,2.65592 -33.55599,3.37257 -0.67962,0.20175 -0.29299,-0.66852 -0.35431,-1.06665 0.88738,-11.3035 2.43604,-22.54933 3.71869,-33.82662 2.75107,-23.14842 5.29963,-46.34332 8.09856,-69.4718 0.21778,-2.19293 0.66161,-4.32587 0.82729,-6.53361 0.0882,-1.09986 -0.67577,-1.96849 -1.81641,-1.83008 z m 272.23633,1.24024 c 2.00733,0.049 4.45485,-0.0837 6.01564,1.51322 1.99377,2.00139 2.50989,4.94308 2.90825,7.62875 0.50922,4.18922 0.37501,8.3491 0.10736,12.5299 -0.59596,8.20953 -1.85062,16.3952 -3.33318,24.48537 -1.44503,7.33264 -3.18176,14.70805 -6.48204,21.4561 -1.89576,3.77582 -4.49029,7.5318 -8.46085,9.32559 -2.65471,1.23995 -5.51157,2.28001 -8.47069,2.33353 -0.56693,0.0797 -0.82693,-0.22855 -0.6527,-0.75472 1.17405,-10.69008 2.59983,-21.3399 3.9569,-32.0105 1.90255,-14.60769 3.78945,-29.23408 5.88074,-43.80266 0.11723,-0.73927 0.21847,-1.48115 0.34893,-2.21825 2.71617,-0.40905 5.4733,-0.44501 8.18164,-0.48633 z m -319.90235,5.2207 c -5.08385,0.26019 -10.13669,0.93702 -15.19401,1.50033 -6.54488,0.83049 -13.11393,1.54822 -19.60886,2.7198 -0.68013,0.0995 -1.50221,0.33513 -1.60124,1.13521 -0.85792,3.73498 -1.29376,7.55322 -1.84396,11.34249 -1.82708,14.23127 -3.47122,28.47254 -5.32987,42.69899 -1.78631,13.72279 -3.55722,27.49032 -5.77167,41.11099 -0.72869,4.07408 -1.2795,8.24992 -2.92327,12.11413 -1.22218,3.02637 -3.19119,6.11368 -6.41184,7.25613 -2.2372,0.77513 -4.72997,0.89098 -7.02612,0.31138 -1.81889,-0.43119 -3.16023,-2.03055 -3.49423,-3.83789 -0.65015,-2.89462 0.0805,-5.8439 0.28759,-8.74694 2.65442,-24.13151 5.81372,-48.20377 8.59304,-72.3206 0.88237,-7.98219 1.85487,-15.95907 2.38795,-23.97344 -0.0149,-1.06684 0.28321,-2.23446 -0.20413,-3.22855 -0.65247,-0.59573 -1.64259,-0.21884 -2.44246,-0.27095 -7.99287,0.60256 -15.95139,1.59974 -23.90513,2.5801 -3.21119,0.45103 -6.45223,0.76995 -9.61921,1.47796 -0.96626,0.25765 -0.81217,1.47188 -1.04297,2.24024 -1.84369,11.53051 -3.23094,23.12921 -4.7175,34.71072 -2.14657,17.07991 -4.40218,34.14593 -6.66294,51.21088 -1.13163,9.15604 -2.28974,18.3404 -2.34852,27.57917 0.0115,5.8042 0.55799,11.88532 3.56965,16.989 2.14952,3.74703 5.33699,6.9555 9.29907,8.75301 2.93496,1.34438 6.04714,2.33963 9.23134,2.88026 5.70164,0.76596 11.48678,0.57506 17.2099,0.16778 7.00333,-0.53491 14.02041,-1.60983 20.64642,-4.01497 8.79674,-3.07308 16.9109,-8.28524 22.98035,-15.39748 6.76343,-7.83555 11.00158,-17.56768 13.42795,-27.55833 1.18058,-6.28492 1.98018,-12.63566 2.90281,-18.96315 3.37358,-24.49842 6.52536,-49.028 9.40861,-73.58836 0.55396,-5.2274 1.274,-10.44326 1.55091,-15.69432 0.0346,-0.53421 -0.16376,-1.1045 -0.76562,-1.14843 -0.19143,-0.0362 -0.38841,-0.0285 -0.58204,-0.0352 z m -192.874996,9.67969 c -0.88358,0.0967 -2.04374,0.093 -2.5,1.00586 -0.07656,0.77578 0.67077,1.19307 1.361504,1.20016 1.193431,0.0512 2.498657,0.23667 3.607806,-0.28336 0.735453,-0.44351 0.355044,-1.519 -0.410716,-1.67461 -0.657048,-0.23495 -1.367181,-0.27017 -2.058594,-0.24805 z m 53.449216,8.57617 c -13.59063,0.32465 -27.09399,2.05819 -40.567552,3.748 -4.504224,0.63516 -9.057411,1.05088 -13.484724,2.12686 -1.327861,0.31934 -2.921819,0.97465 -3.150846,2.506 -1.329503,8.78135 -2.449086,17.59605 -3.648927,26.39712 -4.454144,33.23072 -8.769369,66.47981 -13.155438,99.7195 -0.776913,5.89433 -1.590535,11.78549 -2.41302,17.67232 -0.175857,1.04532 0.166447,2.41608 1.367775,2.63293 1.688162,0.23272 3.396412,-0.13441 5.083992,-0.24852 8.675524,-0.96579 17.327316,-2.16162 25.946033,-3.54604 1.519873,-0.29206 3.085839,-0.44303 4.550053,-0.96129 0.724972,-0.51075 0.61899,-1.56277 0.855469,-2.33985 2.0233,-11.8769 2.988905,-23.91077 4.937325,-35.77 -0.10641,-0.7441 0.60627,-0.83837 1.16996,-0.92264 1.82149,-0.21838 3.66051,-0.0979 5.49755,-0.39377 6.68785,-0.8527 13.24591,-2.61459 19.56563,-4.94163 9.68374,-3.55946 18.31541,-9.92537 24.51208,-18.18027 6.95353,-9.17168 11.01171,-20.21203 13.36303,-31.39496 1.46899,-6.65532 2.12837,-13.46747 2.18905,-20.27743 0.0204,-5.58545 -0.14701,-11.22365 -1.31861,-16.70328 -1.51431,-6.57543 -5.87701,-12.44631 -11.81505,-15.67877 -3.41087,-1.93389 -7.2733,-2.96814 -11.17492,-3.22492 -2.7631,-0.23287 -5.53774,-0.25094 -8.30886,-0.21936 z m -13.74609,34.94922 c 1.43705,-0.10131 2.95133,0.2445 3.96392,1.3317 1.30281,1.17685 2.63905,2.55219 2.81654,4.39415 0.34675,2.48406 0.24145,5.0136 0.25079,7.45384 -0.0943,3.93574 -0.52373,7.62691 -1.53076,11.4557 -1.40236,5.18966 -3.94094,10.39455 -8.43408,13.57555 -2.49527,1.65444 -5.39195,2.76109 -8.3713,3.09788 -0.98503,0.0419 -2.2033,0.16765 -2.94706,-0.6057 -0.25072,-0.77057 0.0419,-1.54043 0.0531,-2.38609 1.13198,-10.31782 2.55825,-20.62632 4.03859,-30.91665 0.31857,-2.125 0.61716,-4.25499 1.03523,-6.36327 3.0069,-0.63075 6.08795,-0.87554 9.15234,-1.03906 z m 271.34375,21.1289 c -7.92109,1.13849 -15.894,1.85014 -23.84344,2.85993 -2.40959,0.37456 -4.87105,0.60747 -7.19953,1.35883 -0.94962,0.36093 -0.5643,1.53639 -0.52677,2.31017 1.08207,7.8373 2.58006,15.61118 4.00829,23.39085 1.70227,8.89358 3.34663,17.8032 5.43052,26.61642 0.29765,1.22226 0.6205,2.75942 1.97273,3.21966 1.73161,0.0446 3.46292,-0.31368 5.19014,-0.46959 16.19992,-1.93753 32.3871,-3.98336 48.55871,-6.1487 1.33543,-0.20497 2.69165,-0.3137 4.0031,-0.64733 0.62491,-1.49604 0.66331,-3.16059 0.95172,-4.74249 1.21626,-8.80176 2.27737,-17.62883 3.12516,-26.47442 0.0293,-1.11891 0.32637,-2.27937 0.0872,-3.38075 -0.24955,-0.74614 -1.26015,-0.49278 -1.88086,-0.50976 -11.65341,0.91466 -23.21839,2.69547 -34.84316,3.90217 -2.13831,0.21691 -4.31054,0.45991 -6.4752,0.58416 0.29416,-5.93428 1.22871,-11.79926 1.92676,-17.69276 0.18196,-1.43836 0.36317,-2.8768 0.5459,-4.31506 -0.34375,0.0462 -0.6875,0.0924 -1.03125,0.13867 z m 225.08594,40.95899 c -16.44724,1.60736 -32.85568,3.59678 -49.2693,5.51821 -14.93695,1.78837 -29.88027,3.53353 -44.792,5.5165 -0.8464,0.17428 -1.85339,0.1344 -2.58368,0.53957 -0.58184,1.48512 -0.62512,3.12347 -0.90881,4.68379 -1.37547,9.84117 -2.4016,19.73007 -3.58293,29.5974 2.69114,0.0458 5.38011,-0.054 8.0537,-0.3733 6.77931,-0.65072 13.51884,-1.6893 20.29591,-2.20483 0.24107,0.15747 -0.0569,1.04653 -0.0419,1.49382 -1.99395,17.53428 -4.25408,35.02308 -6.46099,52.53272 -2.68775,21.30992 -5.45987,42.60804 -7.99083,63.93535 -0.18281,1.0248 -0.23587,2.4272 0.90391,2.91702 1.53066,0.55915 3.17368,-0.0505 4.7337,-0.16396 10.67426,-1.37191 21.47811,-2.52944 32.21357,-3.76378 3.43222,-26.65055 6.58506,-53.33773 9.88087,-80.00749 1.69409,-13.70153 3.33982,-27.41165 5.19688,-41.09777 0.0856,-0.57822 1.03269,-0.32432 1.49096,-0.52135 9.22614,-1.39402 18.61219,-2.23063 27.86136,-3.68601 0.64062,-0.1548 1.64585,-0.10003 1.71641,-0.95495 0.79551,-4.39712 1.25644,-8.84966 1.82541,-13.28099 0.83786,-6.92325 1.63135,-13.85182 2.44803,-20.77761 -0.33008,0.0326 -0.66016,0.0651 -0.99023,0.0977 z m -139.14258,17.64062 c -9.90655,0.29995 -19.75712,1.49719 -29.60128,2.57994 -9.10182,1.08056 -18.21701,2.06685 -27.29108,3.35668 -0.60918,0.009 -1.12122,0.37316 -1.1801,1.00924 -0.78951,4.39517 -1.25887,8.84378 -1.88171,13.26564 -5.92244,45.48955 -11.60959,91.00988 -17.60638,136.48968 -0.29883,2.24273 -0.68162,4.47292 -1.02539,6.70898 10.33919,-1.46774 20.67916,-3.01535 31.07845,-4.02691 2.20359,-0.32241 4.57861,0.11699 6.6385,-0.89506 0.927,-0.5581 0.7042,-1.8236 0.96681,-2.73187 2.21344,-14.69026 3.66745,-29.51406 5.82601,-44.186 0.26579,-1.72975 0.52243,-3.46098 0.83203,-5.1836 5.82882,15.34605 10.72619,31.0282 16.51643,46.38632 0.30694,0.69653 0.4843,1.76566 1.43641,1.77173 2.84352,0.15112 5.68799,-0.22975 8.52253,-0.43059 8.78704,-0.82751 17.56982,-1.78392 26.28759,-3.17246 1.35597,-0.31188 2.85515,-0.32165 4.06321,-1.07453 0.49155,-1.05319 -0.17615,-2.19672 -0.375,-3.25 -2.25418,-7.33237 -4.97669,-14.51096 -7.66439,-21.69319 -3.32326,-8.82064 -6.8666,-17.56275 -9.92089,-26.48244 -0.51841,-1.74825 -1.25775,-3.49622 -1.2741,-5.34195 0.10071,-0.50991 0.82023,-0.54987 1.15548,-0.88554 4.52992,-3.02303 8.4739,-6.84945 12.07602,-10.91384 4.49656,-5.14896 7.79971,-11.2601 10.19185,-17.64005 3.97759,-10.76598 5.08922,-22.38546 4.71812,-33.7939 -0.26045,-5.95783 -0.97796,-12.10735 -3.80724,-17.45352 -2.19418,-4.2497 -6.02628,-7.4841 -10.3709,-9.39091 -4.4463,-2.11087 -9.3845,-2.92408 -14.27387,-3.01794 -1.34488,-0.0391 -2.69165,-0.03 -4.03711,-0.004 z m -198.53906,24.62696 c -7.74266,0.37719 -15.45296,1.23756 -23.16194,2.02992 -10.1702,1.11489 -20.34471,2.23698 -30.45617,3.80112 -1.28216,0.2826 -2.69385,0.29647 -3.83697,0.99318 -0.56747,1.46544 -0.64126,3.07471 -0.93137,4.61143 -1.67646,11.39314 -2.92625,22.84452 -4.4013,34.26504 -3.9993,32.12167 -8.13714,64.22639 -12.01258,96.36106 -0.65372,5.67287 -1.39961,11.33831 -1.90475,17.02614 0.015,1.13847 0.002,2.72743 1.29883,3.18164 1.09882,0.23341 2.16599,-0.33565 3.26171,-0.39063 9.94941,-1.47474 20.01407,-2.28768 29.96181,-3.94317 0.7634,-0.18761 1.9059,-0.16111 2.10651,-1.12644 0.84598,-3.08726 1.20076,-6.28594 1.71024,-9.44132 1.72168,-11.83361 2.89919,-23.79447 4.51832,-35.59844 6.31865,-1.04307 12.73653,-1.54112 18.95317,-3.14874 9.0826,-2.20595 17.87999,-6.22699 24.80637,-12.59881 7.49832,-6.7859 12.54309,-15.83584 16.06272,-25.21729 4.30709,-11.65359 6.52625,-24.05746 6.7427,-36.4711 0.0387,-6.88731 -0.59824,-13.99759 -3.59854,-20.29431 -2.19568,-4.6847 -6.03366,-8.56724 -10.72638,-10.75844 -5.70094,-2.70923 -12.1533,-3.36246 -18.39238,-3.28084 z m 181.0957,9.58593 c 1.89906,0.0288 3.77597,-0.14391 5.60359,0.56276 1.63374,0.71409 2.92763,2.06203 3.95738,3.48429 0.78217,1.38381 0.61266,3.06196 0.62339,4.47585 -0.23452,6.60169 -0.62339,13.43153 -3.46536,19.50913 -1.76673,3.87158 -4.92935,7.18555 -8.97197,8.66081 -2.58836,0.89353 -5.17376,1.93418 -7.90552,2.28249 -0.43826,0.0508 -1.24166,0.0642 -1.04694,-0.61619 0.57006,-6.61419 1.44225,-13.22201 2.21585,-19.80098 0.64146,-4.71353 1.01749,-9.48005 2.09243,-14.12194 0.41431,-1.63482 1.06506,-3.64426 2.91082,-4.10418 1.29623,-0.35208 2.65575,-0.30452 3.98633,-0.33204 z m -279.0625,0.83008 c -3.04015,0.65268 -6.15028,0.95924 -9.22901,1.39703 -8.90193,1.18296 -17.86905,2.00101 -26.71746,3.62309 -0.75761,0.17733 -1.8075,0.25115 -1.99814,1.17811 -4.21235,10.43868 -8.23227,20.95137 -12.31456,31.44222 -14.5043,37.4486 -28.94869,74.92177 -43.252656,112.44698 -1.671006,4.47871 -3.448674,8.91859 -5.000253,13.43939 -0.334306,0.85182 -0.117848,2.02322 0.869341,2.30137 1.658967,0.46023 3.414066,0.123 5.103328,0.0261 9.44901,-0.98974 18.8538,-2.31437 28.29631,-3.37184 1.06346,-0.15273 2.14713,-0.19438 3.20208,-0.37701 1.0662,-0.78547 1.44977,-2.16347 2.05002,-3.29327 2.57139,-5.51668 4.13849,-11.44291 6.78592,-16.92548 0.59507,-1.00793 1.06874,-2.33656 2.23955,-2.78874 4.24591,-0.92859 8.5877,-1.32862 12.89967,-1.83283 3.84099,-0.39428 7.78375,-0.80602 11.55805,-0.90968 0.70519,-0.23876 0.67375,0.43667 0.73645,0.93056 0.84462,6.01672 0.62089,12.14312 1.74879,18.13957 0.1368,0.76905 0.47589,1.93368 1.48192,1.72948 6.5843,-0.60741 13.13754,-1.51374 19.69895,-2.32843 5.29398,-0.71456 10.60767,-1.31752 15.87295,-2.21923 0.67379,-0.0164 0.77327,-0.56962 0.73753,-1.13749 -0.32958,-7.12167 -0.97626,-14.22384 -1.49355,-21.33358 -2.6682,-33.81461 -5.52563,-67.61429 -8.51722,-101.40177 -0.77365,-8.28453 -1.4475,-16.58155 -2.40846,-24.84623 -0.22748,-1.29145 -0.39308,-2.78186 -1.38861,-3.73014 -0.26034,-0.19958 -0.65705,-0.29834 -0.96094,-0.15821 z m 83.16211,25.31836 c 1.88779,0.0598 4.15269,-0.0409 5.74133,1.28097 1.25627,1.2319 1.45399,3.11406 1.634,4.70525 0.23172,2.84385 0.20494,5.65298 0.1051,8.45736 -0.30266,5.68816 -1.36139,11.54555 -3.96906,16.75882 -1.80198,3.58863 -4.5914,7.0251 -8.56338,8.24598 -2.17931,0.77889 -4.64993,1.28129 -7.01565,1.62848 -0.53579,0.0221 -1.50623,0.54901 -1.20814,-0.39749 0.0274,-4.14439 0.62159,-8.21997 1.03324,-12.33502 1.03135,-9.35086 2.22856,-18.68244 3.35584,-28.02208 2.9598,-0.10641 5.97411,-0.28698 8.88672,-0.32227 z m -109.17578,38.25 c 0.5667,13.31819 0.88258,26.64536 1.29883,39.96875 -4.59368,0.54297 -9.17447,1.21052 -13.77436,1.6903 -0.50756,0.0257 -1.0193,0.0397 -1.52447,-0.0262 2.32114,-7.69755 4.93705,-15.30333 7.46093,-22.93555 2.14635,-6.3581 4.28999,-12.72138 6.52149,-19.03906 0.006,0.11393 0.0117,0.22786 0.0176,0.34179 z m 466.52929,48.13477 c -0.88358,0.0967 -2.04374,0.093 -2.5,1.00586 -0.0766,0.77578 0.67077,1.19307 1.36151,1.20016 1.19552,0.0492 2.50704,0.2417 3.61506,-0.29001 0.72975,-0.44268 0.34233,-1.51394 -0.41797,-1.66796 -0.65705,-0.23495 -1.36718,-0.27017 -2.0586,-0.24805 z m -4.48242,1.11719 c -7.92449,0.73974 -15.82174,1.75841 -23.72942,2.66107 -51.47956,6.13808 -102.91265,12.61497 -154.35565,19.05141 -16.07771,2.04719 -32.16847,4.01508 -48.20854,6.33633 -3.98525,0.63075 -8.00905,1.12998 -11.9149,2.16529 -0.75807,0.19577 -1.91915,0.66911 -1.62743,1.64918 0.4166,0.95084 1.6687,0.93218 2.55395,1.1086 5.41546,0.62083 10.87355,0.73452 16.31185,1.06443 5.35202,0.2702 10.72289,0.80908 16.07572,0.25176 8.08196,-0.753 16.09124,-2.11712 24.10982,-3.34839 32.31499,-5.19041 64.60202,-10.55394 96.91257,-15.77217 24.12731,-3.89465 48.23476,-7.83244 72.39868,-11.47758 3.44096,-0.55249 6.85593,-0.88987 10.30148,-1.45556 0.92635,-0.22226 2.1812,-0.27778 2.51172,-1.36328 -0.26309,-0.56251 -0.66715,-0.97954 -1.33985,-0.87109 z m -282.93164,34.6582 c -2.00682,0.17697 -3.98293,0.62664 -5.98955,0.83126 -40.00897,5.17462 -80.04908,10.10538 -120.07688,15.1319 -46.46102,5.8251 -92.91597,11.69845 -139.355821,17.69017 -3.739457,0.48014 -7.478915,0.96028 -11.218373,1.44042 -0.57487,0.30664 -1.149739,0.61328 -1.724609,0.91992 0.929124,0.31106 1.821579,0.83487 2.833927,0.6631 16.951216,-0.14795 33.901686,-0.45364 50.853966,-0.42808 3.53213,0.0242 7.07758,0.0327 10.57578,0.13998 -14.7371,5.60276 -29.785487,10.6404 -44.589845,16.17773 -0.574339,0.15544 -1.243694,0.58264 -1.215446,1.21756 0.191288,0.79753 1.073083,0.88716 1.761156,0.78296 4.637066,-0.49756 9.21578,-1.43616 13.813274,-2.2019 28.033591,-5.02712 56.038051,-10.21633 84.046281,-15.38265 30.4729,-5.65964 60.94503,-11.30594 91.33394,-17.40248 14.73504,-3.00583 29.48774,-5.99322 44.0173,-9.89182 7.04104,-1.98657 14.05716,-4.0782 21.02074,-6.31973 1.54802,-0.56117 3.19319,-0.95755 4.61533,-1.79998 0.5912,-0.38395 0.44596,-1.4139 -0.27804,-1.52487 -0.13271,-0.036 -0.28398,-0.0397 -0.42313,-0.0435 z" />
      </g>
    </g>
  </g>
</svg>
